# xmcd
#
# Track frame offsets:
#	150
#	11560
#	25802
#	36102
#	46692
#	58432
#	71977
#	85520
#	96997
#	112807
#	125652
#
# Disc length: 1873 seconds
#
# Revision: 0
# Processed by: cddbd v1.5.2PL0 Copyright (c) Steve Scherf et al.
# Submitted via: EZCDAudioConverter 5.1.1.1
#
DISCID=8e074f0b
DTITLE=Stan Lewis - The Law-Breakin' Reveler - Drivin' Blind Down the Highway 
DTITLE=of Love
DYEAR=1994
DGENRE=
TTITLE0=Don't Shake My Pillow
TTITLE1=Worn Out Blues
TTITLE2=Nothin' But Sweet Things to Say
TTITLE3=Your Leaving Me
TTITLE4=Big Sue
TTITLE5=You Don't Bother Me That Way, Anymore
TTITLE6=If Apologizing Don't Do It
TTITLE7=Arlene
TTITLE8=Dead End Road
TTITLE9=Drivin' Blind Down the Highway of Love
TTITLE10=Fishin'
EXTD=
EXTT0=
EXTT1=
EXTT2=
EXTT3=
EXTT4=
EXTT5=
EXTT6=
EXTT7=
EXTT8=
EXTT9=
EXTT10=
PLAYORDER=
